<svg width="363" height="364" viewBox="0 0 363 364" fill="none" xmlns="http://www.w3.org/2000/svg">
<rect x="0.0571289" y="0.177002" width="362.896" height="362.896" rx="181.448" fill="#CCFF00"/>
<path d="M98.2916 190.871H79.7998V209.363H98.2916V190.871Z" fill="black"/>
<path d="M116.783 209.363H98.2915V227.855H116.783V209.363Z" fill="black"/>
<path d="M172.259 190.871H153.767V209.363H172.259V190.871Z" fill="black"/>
<path d="M153.767 209.363H135.275V227.855H153.767V209.363Z" fill="black"/>
<path d="M135.275 227.855H116.784V246.347H135.275V227.855Z" fill="black"/>
<path d="M153.767 246.347H135.275V264.838H153.767V246.347Z" fill="black"/>
<path d="M172.259 264.838H153.767V283.33H172.259V264.838Z" fill="black"/>
<path d="M116.783 246.347H98.2915V264.838H116.783V246.347Z" fill="black"/>
<path d="M98.2916 264.838H79.7998V283.33H98.2916V264.838Z" fill="black"/>
<path d="M209.243 209.363H190.751V227.855H209.243V209.363Z" fill="black"/>
<path d="M264.718 190.871H246.227V209.363H264.718V190.871Z" fill="black"/>
<path d="M246.227 190.871H227.735V209.363H246.227V190.871Z" fill="black"/>
<path d="M227.734 190.871H209.243V209.363H227.734V190.871Z" fill="black"/>
<path d="M246.227 246.346H227.735V264.838H246.227V246.346Z" fill="black"/>
<path d="M227.734 246.346H209.243V264.838H227.734V246.346Z" fill="black"/>
<path d="M264.718 246.346H246.227V264.838H264.718V246.346Z" fill="black"/>
<path d="M283.21 227.855H264.718V246.346H283.21V227.855Z" fill="black"/>
<path d="M283.21 209.363H264.718V227.855H283.21V209.363Z" fill="black"/>
<path d="M209.243 246.346H190.751V264.838H209.243V246.346Z" fill="black"/>
<path d="M209.243 264.838H190.751V283.33H209.243V264.838Z" fill="black"/>
<path d="M209.243 227.855H190.751V246.346H209.243V227.855Z" fill="black"/>
<path d="M209.243 116.904H190.751V135.396H209.243V116.904Z" fill="black"/>
<path d="M209.243 98.4126H190.751V116.904H209.243V98.4126Z" fill="black"/>
<path d="M209.243 79.9207H190.751V98.4124H209.243V79.9207Z" fill="black"/>
<path d="M264.718 98.4126H246.227V116.904H264.718V98.4126Z" fill="black"/>
<path d="M283.21 79.9207H264.718V98.4124H283.21V79.9207Z" fill="black"/>
<path d="M246.227 116.904H227.735V135.396H246.227V116.904Z" fill="black"/>
<path d="M227.734 98.4126H209.243V116.904H227.734V98.4126Z" fill="black"/>
<path d="M283.21 135.396H264.718V153.888H283.21V135.396Z" fill="black"/>
<path d="M283.21 153.888H264.718V172.379H283.21V153.888Z" fill="black"/>
<path d="M283.21 116.904H264.718V135.396H283.21V116.904Z" fill="black"/>
<path d="M283.21 98.4126H264.718V116.904H283.21V98.4126Z" fill="black"/>
<path d="M209.243 153.888H190.751V172.379H209.243V153.888Z" fill="black"/>
<path d="M209.243 135.396H190.751V153.888H209.243V135.396Z" fill="black"/>
<path d="M98.2916 98.4126H79.7998V116.904H98.2916V98.4126Z" fill="black"/>
<path d="M153.767 79.9207H135.275V98.4124H153.767V79.9207Z" fill="black"/>
<path d="M135.275 79.9207H116.784V98.4124H135.275V79.9207Z" fill="black"/>
<path d="M116.783 79.9207H98.2915V98.4124H116.783V79.9207Z" fill="black"/>
<path d="M135.275 153.888H116.784V172.379H135.275V153.888Z" fill="black"/>
<path d="M116.783 153.888H98.2915V172.379H116.783V153.888Z" fill="black"/>
<path d="M153.767 153.888H135.275V172.379H153.767V153.888Z" fill="black"/>
<path d="M172.259 135.396H153.767V153.888H172.259V135.396Z" fill="black"/>
<path d="M172.259 116.904H153.767V135.396H172.259V116.904Z" fill="black"/>
<path d="M153.767 116.904H135.275V135.396H153.767V116.904Z" fill="black"/>
<path d="M98.2916 135.396H79.7998V153.888H98.2916V135.396Z" fill="black"/>
<path d="M98.2916 116.904H79.7998V135.396H98.2916V116.904Z" fill="black"/>
</svg>
