<?xml version="1.0" encoding="UTF-8"?>
<svg xmlns="http://www.w3.org/2000/svg" xmlns:xlink="http://www.w3.org/1999/xlink" width="50px" height="50px" viewBox="0 0 50 50" version="1.1">
<g id="surface1">
<path style=" stroke:none;fill-rule:nonzero;fill:rgb(80%,100%,0%);fill-opacity:1;" d="M 25 0.0234375 C 38.804688 0.0234375 49.992188 11.183594 49.992188 24.949219 C 49.992188 38.714844 38.804688 49.871094 25 49.871094 C 11.199219 49.871094 0.0078125 38.714844 0.0078125 24.949219 C 0.0078125 11.183594 11.199219 0.0234375 25 0.0234375 Z M 25 0.0234375 "/>
<path style=" stroke:none;fill-rule:nonzero;fill:rgb(0%,0%,0%);fill-opacity:1;" d="M 13.539062 26.21875 L 10.992188 26.21875 L 10.992188 28.757812 L 13.539062 28.757812 Z M 13.539062 26.21875 "/>
<path style=" stroke:none;fill-rule:nonzero;fill:rgb(0%,0%,0%);fill-opacity:1;" d="M 16.085938 28.757812 L 13.539062 28.757812 L 13.539062 31.296875 L 16.085938 31.296875 Z M 16.085938 28.757812 "/>
<path style=" stroke:none;fill-rule:nonzero;fill:rgb(0%,0%,0%);fill-opacity:1;" d="M 23.726562 26.21875 L 21.179688 26.21875 L 21.179688 28.757812 L 23.726562 28.757812 Z M 23.726562 26.21875 "/>
<path style=" stroke:none;fill-rule:nonzero;fill:rgb(0%,0%,0%);fill-opacity:1;" d="M 21.179688 28.757812 L 18.632812 28.757812 L 18.632812 31.296875 L 21.179688 31.296875 Z M 21.179688 28.757812 "/>
<path style=" stroke:none;fill-rule:nonzero;fill:rgb(0%,0%,0%);fill-opacity:1;" d="M 18.632812 31.296875 L 16.085938 31.296875 L 16.085938 33.839844 L 18.632812 33.839844 Z M 18.632812 31.296875 "/>
<path style=" stroke:none;fill-rule:nonzero;fill:rgb(0%,0%,0%);fill-opacity:1;" d="M 21.179688 33.839844 L 18.632812 33.839844 L 18.632812 36.378906 L 21.179688 36.378906 Z M 21.179688 33.839844 "/>
<path style=" stroke:none;fill-rule:nonzero;fill:rgb(0%,0%,0%);fill-opacity:1;" d="M 23.726562 36.378906 L 21.179688 36.378906 L 21.179688 38.917969 L 23.726562 38.917969 Z M 23.726562 36.378906 "/>
<path style=" stroke:none;fill-rule:nonzero;fill:rgb(0%,0%,0%);fill-opacity:1;" d="M 16.085938 33.839844 L 13.539062 33.839844 L 13.539062 36.378906 L 16.085938 36.378906 Z M 16.085938 33.839844 "/>
<path style=" stroke:none;fill-rule:nonzero;fill:rgb(0%,0%,0%);fill-opacity:1;" d="M 13.539062 36.378906 L 10.992188 36.378906 L 10.992188 38.917969 L 13.539062 38.917969 Z M 13.539062 36.378906 "/>
<path style=" stroke:none;fill-rule:nonzero;fill:rgb(0%,0%,0%);fill-opacity:1;" d="M 28.820312 28.757812 L 26.273438 28.757812 L 26.273438 31.296875 L 28.820312 31.296875 Z M 28.820312 28.757812 "/>
<path style=" stroke:none;fill-rule:nonzero;fill:rgb(0%,0%,0%);fill-opacity:1;" d="M 36.460938 26.21875 L 33.914062 26.21875 L 33.914062 28.757812 L 36.460938 28.757812 Z M 36.460938 26.21875 "/>
<path style=" stroke:none;fill-rule:nonzero;fill:rgb(0%,0%,0%);fill-opacity:1;" d="M 33.914062 26.21875 L 31.367188 26.21875 L 31.367188 28.757812 L 33.914062 28.757812 Z M 33.914062 26.21875 "/>
<path style=" stroke:none;fill-rule:nonzero;fill:rgb(0%,0%,0%);fill-opacity:1;" d="M 31.367188 26.21875 L 28.820312 26.21875 L 28.820312 28.757812 L 31.367188 28.757812 Z M 31.367188 26.21875 "/>
<path style=" stroke:none;fill-rule:nonzero;fill:rgb(0%,0%,0%);fill-opacity:1;" d="M 33.914062 33.839844 L 31.367188 33.839844 L 31.367188 36.378906 L 33.914062 36.378906 Z M 33.914062 33.839844 "/>
<path style=" stroke:none;fill-rule:nonzero;fill:rgb(0%,0%,0%);fill-opacity:1;" d="M 31.367188 33.839844 L 28.820312 33.839844 L 28.820312 36.378906 L 31.367188 36.378906 Z M 31.367188 33.839844 "/>
<path style=" stroke:none;fill-rule:nonzero;fill:rgb(0%,0%,0%);fill-opacity:1;" d="M 36.460938 33.839844 L 33.914062 33.839844 L 33.914062 36.378906 L 36.460938 36.378906 Z M 36.460938 33.839844 "/>
<path style=" stroke:none;fill-rule:nonzero;fill:rgb(0%,0%,0%);fill-opacity:1;" d="M 39.007812 31.296875 L 36.460938 31.296875 L 36.460938 33.839844 L 39.007812 33.839844 Z M 39.007812 31.296875 "/>
<path style=" stroke:none;fill-rule:nonzero;fill:rgb(0%,0%,0%);fill-opacity:1;" d="M 39.007812 28.757812 L 36.460938 28.757812 L 36.460938 31.296875 L 39.007812 31.296875 Z M 39.007812 28.757812 "/>
<path style=" stroke:none;fill-rule:nonzero;fill:rgb(0%,0%,0%);fill-opacity:1;" d="M 28.820312 33.839844 L 26.273438 33.839844 L 26.273438 36.378906 L 28.820312 36.378906 Z M 28.820312 33.839844 "/>
<path style=" stroke:none;fill-rule:nonzero;fill:rgb(0%,0%,0%);fill-opacity:1;" d="M 28.820312 36.378906 L 26.273438 36.378906 L 26.273438 38.917969 L 28.820312 38.917969 Z M 28.820312 36.378906 "/>
<path style=" stroke:none;fill-rule:nonzero;fill:rgb(0%,0%,0%);fill-opacity:1;" d="M 28.820312 31.296875 L 26.273438 31.296875 L 26.273438 33.839844 L 28.820312 33.839844 Z M 28.820312 31.296875 "/>
<path style=" stroke:none;fill-rule:nonzero;fill:rgb(0%,0%,0%);fill-opacity:1;" d="M 28.820312 16.058594 L 26.273438 16.058594 L 26.273438 18.597656 L 28.820312 18.597656 Z M 28.820312 16.058594 "/>
<path style=" stroke:none;fill-rule:nonzero;fill:rgb(0%,0%,0%);fill-opacity:1;" d="M 28.820312 13.519531 L 26.273438 13.519531 L 26.273438 16.058594 L 28.820312 16.058594 Z M 28.820312 13.519531 "/>
<path style=" stroke:none;fill-rule:nonzero;fill:rgb(0%,0%,0%);fill-opacity:1;" d="M 28.820312 10.976562 L 26.273438 10.976562 L 26.273438 13.519531 L 28.820312 13.519531 Z M 28.820312 10.976562 "/>
<path style=" stroke:none;fill-rule:nonzero;fill:rgb(0%,0%,0%);fill-opacity:1;" d="M 36.460938 13.519531 L 33.914062 13.519531 L 33.914062 16.058594 L 36.460938 16.058594 Z M 36.460938 13.519531 "/>
<path style=" stroke:none;fill-rule:nonzero;fill:rgb(0%,0%,0%);fill-opacity:1;" d="M 39.007812 10.976562 L 36.460938 10.976562 L 36.460938 13.519531 L 39.007812 13.519531 Z M 39.007812 10.976562 "/>
<path style=" stroke:none;fill-rule:nonzero;fill:rgb(0%,0%,0%);fill-opacity:1;" d="M 33.914062 16.058594 L 31.367188 16.058594 L 31.367188 18.597656 L 33.914062 18.597656 Z M 33.914062 16.058594 "/>
<path style=" stroke:none;fill-rule:nonzero;fill:rgb(0%,0%,0%);fill-opacity:1;" d="M 31.367188 13.519531 L 28.820312 13.519531 L 28.820312 16.058594 L 31.367188 16.058594 Z M 31.367188 13.519531 "/>
<path style=" stroke:none;fill-rule:nonzero;fill:rgb(0%,0%,0%);fill-opacity:1;" d="M 39.007812 18.597656 L 36.460938 18.597656 L 36.460938 21.136719 L 39.007812 21.136719 Z M 39.007812 18.597656 "/>
<path style=" stroke:none;fill-rule:nonzero;fill:rgb(0%,0%,0%);fill-opacity:1;" d="M 39.007812 21.136719 L 36.460938 21.136719 L 36.460938 23.679688 L 39.007812 23.679688 Z M 39.007812 21.136719 "/>
<path style=" stroke:none;fill-rule:nonzero;fill:rgb(0%,0%,0%);fill-opacity:1;" d="M 39.007812 16.058594 L 36.460938 16.058594 L 36.460938 18.597656 L 39.007812 18.597656 Z M 39.007812 16.058594 "/>
<path style=" stroke:none;fill-rule:nonzero;fill:rgb(0%,0%,0%);fill-opacity:1;" d="M 39.007812 13.519531 L 36.460938 13.519531 L 36.460938 16.058594 L 39.007812 16.058594 Z M 39.007812 13.519531 "/>
<path style=" stroke:none;fill-rule:nonzero;fill:rgb(0%,0%,0%);fill-opacity:1;" d="M 28.820312 21.136719 L 26.273438 21.136719 L 26.273438 23.679688 L 28.820312 23.679688 Z M 28.820312 21.136719 "/>
<path style=" stroke:none;fill-rule:nonzero;fill:rgb(0%,0%,0%);fill-opacity:1;" d="M 28.820312 18.597656 L 26.273438 18.597656 L 26.273438 21.136719 L 28.820312 21.136719 Z M 28.820312 18.597656 "/>
<path style=" stroke:none;fill-rule:nonzero;fill:rgb(0%,0%,0%);fill-opacity:1;" d="M 13.539062 13.519531 L 10.992188 13.519531 L 10.992188 16.058594 L 13.539062 16.058594 Z M 13.539062 13.519531 "/>
<path style=" stroke:none;fill-rule:nonzero;fill:rgb(0%,0%,0%);fill-opacity:1;" d="M 21.179688 10.976562 L 18.632812 10.976562 L 18.632812 13.519531 L 21.179688 13.519531 Z M 21.179688 10.976562 "/>
<path style=" stroke:none;fill-rule:nonzero;fill:rgb(0%,0%,0%);fill-opacity:1;" d="M 18.632812 10.976562 L 16.085938 10.976562 L 16.085938 13.519531 L 18.632812 13.519531 Z M 18.632812 10.976562 "/>
<path style=" stroke:none;fill-rule:nonzero;fill:rgb(0%,0%,0%);fill-opacity:1;" d="M 16.085938 10.976562 L 13.539062 10.976562 L 13.539062 13.519531 L 16.085938 13.519531 Z M 16.085938 10.976562 "/>
<path style=" stroke:none;fill-rule:nonzero;fill:rgb(0%,0%,0%);fill-opacity:1;" d="M 18.632812 21.136719 L 16.085938 21.136719 L 16.085938 23.679688 L 18.632812 23.679688 Z M 18.632812 21.136719 "/>
<path style=" stroke:none;fill-rule:nonzero;fill:rgb(0%,0%,0%);fill-opacity:1;" d="M 16.085938 21.136719 L 13.539062 21.136719 L 13.539062 23.679688 L 16.085938 23.679688 Z M 16.085938 21.136719 "/>
<path style=" stroke:none;fill-rule:nonzero;fill:rgb(0%,0%,0%);fill-opacity:1;" d="M 21.179688 21.136719 L 18.632812 21.136719 L 18.632812 23.679688 L 21.179688 23.679688 Z M 21.179688 21.136719 "/>
<path style=" stroke:none;fill-rule:nonzero;fill:rgb(0%,0%,0%);fill-opacity:1;" d="M 23.726562 18.597656 L 21.179688 18.597656 L 21.179688 21.136719 L 23.726562 21.136719 Z M 23.726562 18.597656 "/>
<path style=" stroke:none;fill-rule:nonzero;fill:rgb(0%,0%,0%);fill-opacity:1;" d="M 23.726562 16.058594 L 21.179688 16.058594 L 21.179688 18.597656 L 23.726562 18.597656 Z M 23.726562 16.058594 "/>
<path style=" stroke:none;fill-rule:nonzero;fill:rgb(0%,0%,0%);fill-opacity:1;" d="M 21.179688 16.058594 L 18.632812 16.058594 L 18.632812 18.597656 L 21.179688 18.597656 Z M 21.179688 16.058594 "/>
<path style=" stroke:none;fill-rule:nonzero;fill:rgb(0%,0%,0%);fill-opacity:1;" d="M 13.539062 18.597656 L 10.992188 18.597656 L 10.992188 21.136719 L 13.539062 21.136719 Z M 13.539062 18.597656 "/>
<path style=" stroke:none;fill-rule:nonzero;fill:rgb(0%,0%,0%);fill-opacity:1;" d="M 13.539062 16.058594 L 10.992188 16.058594 L 10.992188 18.597656 L 13.539062 18.597656 Z M 13.539062 16.058594 "/>
</g>
</svg>
