<?xml version="1.0" encoding="UTF-8"?>
<svg xmlns="http://www.w3.org/2000/svg" xmlns:xlink="http://www.w3.org/1999/xlink" width="150px" height="24px" viewBox="0 0 150 24" version="1.1">
<g id="surface1">
<path style=" stroke:none;fill-rule:nonzero;fill:rgb(80%,100%,0%);fill-opacity:1;" d="M 4.375 3.566406 L 3.519531 8.703125 C 3.503906 8.785156 3.507812 8.867188 3.53125 8.949219 C 3.550781 9.03125 3.59375 9.105469 3.644531 9.167969 C 3.699219 9.230469 3.765625 9.28125 3.84375 9.316406 C 3.917969 9.351562 4 9.371094 4.082031 9.371094 L 15.253906 9.371094 C 15.414062 9.363281 15.566406 9.304688 15.6875 9.199219 C 15.8125 9.097656 15.894531 8.953125 15.921875 8.796875 L 16.023438 8.207031 C 16.070312 7.890625 15.859375 7.632812 15.542969 7.632812 L 7.613281 7.632812 C 7.296875 7.632812 7.082031 7.375 7.132812 7.058594 L 7.425781 5.304688 C 7.457031 5.148438 7.539062 5.003906 7.660156 4.902344 C 7.785156 4.796875 7.9375 4.738281 8.097656 4.730469 L 18.683594 4.730469 C 19 4.730469 19.210938 4.988281 19.160156 5.304688 L 17.664062 14.265625 C 17.632812 14.421875 17.550781 14.566406 17.429688 14.667969 C 17.308594 14.773438 17.15625 14.832031 16.996094 14.839844 L 1.214844 14.839844 C 0.421875 14.839844 -0.113281 14.199219 0.0195312 13.40625 L 2.003906 1.527344 C 2.136719 0.734375 2.882812 0.0898438 3.675781 0.0898438 L 19.457031 0.0898438 C 19.773438 0.0898438 19.988281 0.347656 19.933594 0.664062 L 19.640625 2.417969 C 19.609375 2.578125 19.527344 2.71875 19.40625 2.824219 C 19.285156 2.925781 19.132812 2.988281 18.972656 2.992188 L 5.042969 2.992188 C 4.882812 3 4.730469 3.058594 4.609375 3.164062 C 4.488281 3.269531 4.40625 3.410156 4.375 3.566406 Z M 4.375 3.566406 "/>
<path style=" stroke:none;fill-rule:nonzero;fill:rgb(80%,100%,0%);fill-opacity:1;" d="M 22.296875 1.527344 L 20.171875 14.265625 C 20.121094 14.582031 20.332031 14.839844 20.648438 14.839844 L 22.214844 14.839844 C 22.375 14.832031 22.527344 14.773438 22.648438 14.667969 C 22.769531 14.566406 22.855469 14.421875 22.882812 14.265625 L 23.199219 12.378906 C 23.230469 12.222656 23.3125 12.082031 23.433594 11.976562 C 23.554688 11.871094 23.707031 11.8125 23.867188 11.804688 L 35.082031 11.804688 C 35.398438 11.804688 35.613281 12.0625 35.558594 12.378906 L 35.246094 14.265625 C 35.195312 14.582031 35.40625 14.839844 35.726562 14.839844 L 37.292969 14.839844 C 37.453125 14.832031 37.605469 14.773438 37.726562 14.667969 C 37.847656 14.566406 37.929688 14.421875 37.960938 14.265625 L 40.089844 1.527344 C 40.222656 0.734375 39.683594 0.0898438 38.894531 0.0898438 L 23.972656 0.0898438 C 23.179688 0.0898438 22.429688 0.734375 22.296875 1.527344 Z M 35.996094 6.339844 L 24.78125 6.339844 C 24.464844 6.339844 24.25 6.082031 24.304688 5.765625 L 24.671875 3.566406 C 24.703125 3.410156 24.785156 3.269531 24.90625 3.164062 C 25.027344 3.058594 25.179688 3 25.335938 2.992188 L 36.554688 2.992188 C 36.871094 2.992188 37.085938 3.25 37.03125 3.566406 L 36.664062 5.765625 C 36.632812 5.921875 36.550781 6.066406 36.429688 6.167969 C 36.308594 6.273438 36.15625 6.332031 35.996094 6.339844 Z M 35.996094 6.339844 "/>
<path style=" stroke:none;fill-rule:nonzero;fill:rgb(80%,100%,0%);fill-opacity:1;" d="M 101.933594 6.199219 L 102.710938 1.527344 C 102.84375 0.734375 102.3125 0.0898438 101.519531 0.0898438 L 85.738281 0.0898438 C 85.578125 0.0976562 85.425781 0.15625 85.304688 0.261719 C 85.183594 0.367188 85.101562 0.507812 85.070312 0.664062 L 82.800781 14.265625 C 82.75 14.582031 82.960938 14.839844 83.277344 14.839844 L 84.84375 14.839844 C 85.003906 14.832031 85.15625 14.773438 85.277344 14.667969 C 85.398438 14.566406 85.484375 14.421875 85.511719 14.265625 L 86.523438 8.207031 C 86.554688 8.050781 86.636719 7.90625 86.757812 7.804688 C 86.878906 7.699219 87.035156 7.640625 87.195312 7.632812 L 88.335938 7.632812 C 88.433594 7.628906 88.53125 7.660156 88.613281 7.714844 C 88.695312 7.769531 88.757812 7.851562 88.789062 7.941406 L 90.660156 13.261719 C 91.003906 14.230469 91.902344 14.839844 92.992188 14.839844 L 99.910156 14.839844 C 100.070312 14.832031 100.226562 14.773438 100.347656 14.667969 C 100.46875 14.566406 100.550781 14.421875 100.582031 14.265625 L 101.300781 9.945312 C 101.351562 9.628906 101.140625 9.371094 100.824219 9.371094 L 92.566406 9.371094 C 92.121094 9.371094 91.75 9.125 91.605469 8.726562 L 91.378906 8.046875 C 91.316406 7.859375 91.492188 7.632812 91.703125 7.632812 L 100.257812 7.632812 C 101.050781 7.632812 101.800781 6.992188 101.933594 6.199219 Z M 87.199219 4.15625 L 87.300781 3.566406 C 87.332031 3.410156 87.414062 3.269531 87.535156 3.164062 C 87.65625 3.058594 87.808594 3 87.96875 2.992188 L 99.183594 2.992188 C 99.5 2.992188 99.714844 3.25 99.664062 3.566406 L 99.5625 4.15625 C 99.53125 4.316406 99.449219 4.457031 99.328125 4.5625 C 99.203125 4.664062 99.050781 4.726562 98.890625 4.730469 L 87.679688 4.730469 C 87.359375 4.730469 87.148438 4.472656 87.199219 4.15625 Z M 87.199219 4.15625 "/>
<path style=" stroke:none;fill-rule:nonzero;fill:rgb(80%,100%,0%);fill-opacity:1;" d="M 107.589844 3.566406 L 107.492188 4.15625 C 107.4375 4.472656 107.652344 4.730469 107.96875 4.730469 L 121.039062 4.730469 C 121.832031 4.730469 122.363281 5.375 122.234375 6.164062 L 121.023438 13.40625 C 120.890625 14.199219 120.144531 14.839844 119.351562 14.839844 L 103.570312 14.839844 C 103.253906 14.839844 103.039062 14.582031 103.09375 14.265625 L 103.8125 9.945312 C 103.84375 9.785156 103.925781 9.644531 104.046875 9.539062 C 104.167969 9.4375 104.324219 9.375 104.484375 9.371094 L 118.414062 9.371094 C 118.570312 9.363281 118.726562 9.304688 118.847656 9.199219 C 118.96875 9.097656 119.050781 8.953125 119.082031 8.796875 L 119.183594 8.207031 C 119.234375 7.890625 119.019531 7.632812 118.703125 7.632812 L 105.632812 7.632812 C 104.839844 7.632812 104.308594 6.992188 104.4375 6.199219 L 105.21875 1.527344 C 105.351562 0.734375 106.101562 0.0898438 106.890625 0.0898438 L 122.671875 0.0898438 C 122.988281 0.0898438 123.203125 0.347656 123.152344 0.664062 L 122.859375 2.417969 C 122.828125 2.578125 122.746094 2.71875 122.625 2.824219 C 122.503906 2.929688 122.347656 2.988281 122.1875 2.992188 L 108.261719 2.992188 C 108.101562 3 107.945312 3.058594 107.828125 3.164062 C 107.703125 3.269531 107.621094 3.410156 107.589844 3.566406 Z M 107.589844 3.566406 "/>
<path style=" stroke:none;fill-rule:nonzero;fill:rgb(80%,100%,0%);fill-opacity:1;" d="M 67.003906 3.566406 L 66.902344 4.15625 C 66.851562 4.472656 67.0625 4.730469 67.378906 4.730469 L 81.308594 4.730469 C 81.625 4.730469 81.839844 4.988281 81.785156 5.304688 L 81.492188 7.058594 C 81.460938 7.21875 81.378906 7.359375 81.257812 7.464844 C 81.136719 7.566406 80.984375 7.628906 80.824219 7.632812 L 66.898438 7.632812 C 66.738281 7.640625 66.585938 7.699219 66.464844 7.804688 C 66.339844 7.90625 66.257812 8.050781 66.230469 8.207031 L 66.128906 8.796875 C 66.078125 9.113281 66.292969 9.371094 66.609375 9.371094 L 80.535156 9.371094 C 80.851562 9.371094 81.066406 9.628906 81.011719 9.945312 L 80.292969 14.265625 C 80.261719 14.421875 80.179688 14.566406 80.058594 14.671875 C 79.9375 14.773438 79.78125 14.835938 79.621094 14.839844 L 62.984375 14.839844 C 62.664062 14.839844 62.453125 14.582031 62.503906 14.265625 L 64.773438 0.664062 C 64.804688 0.507812 64.886719 0.367188 65.007812 0.261719 C 65.128906 0.15625 65.285156 0.0976562 65.445312 0.0898438 L 82.085938 0.0898438 C 82.402344 0.0898438 82.613281 0.347656 82.5625 0.664062 L 82.269531 2.421875 C 82.238281 2.578125 82.15625 2.71875 82.035156 2.824219 C 81.914062 2.929688 81.757812 2.988281 81.601562 2.992188 L 67.671875 2.992188 C 67.511719 3 67.359375 3.058594 67.238281 3.164062 C 67.117188 3.265625 67.035156 3.410156 67.003906 3.566406 Z M 67.003906 3.566406 "/>
<path style=" stroke:none;fill-rule:nonzero;fill:rgb(80%,100%,0%);fill-opacity:1;" d="M 62.269531 0.664062 L 60 14.265625 C 59.96875 14.421875 59.886719 14.566406 59.765625 14.667969 C 59.640625 14.773438 59.488281 14.832031 59.328125 14.839844 L 57.761719 14.839844 C 57.445312 14.839844 57.230469 14.582031 57.285156 14.265625 L 58.261719 8.414062 C 58.304688 8.15625 58.015625 8.03125 57.804688 8.210938 L 50.546875 14.433594 C 50.285156 14.65625 49.921875 14.65625 49.738281 14.433594 L 44.65625 8.332031 C 44.507812 8.152344 44.175781 8.28125 44.132812 8.535156 L 43.175781 14.265625 C 43.148438 14.421875 43.066406 14.566406 42.941406 14.667969 C 42.820312 14.773438 42.667969 14.832031 42.507812 14.839844 L 40.941406 14.839844 C 40.625 14.839844 40.410156 14.582031 40.464844 14.265625 L 42.734375 0.664062 C 42.765625 0.507812 42.847656 0.367188 42.96875 0.261719 C 43.089844 0.15625 43.242188 0.0976562 43.402344 0.0898438 L 45.429688 0.0898438 C 45.5 0.0898438 45.570312 0.105469 45.636719 0.132812 C 45.699219 0.160156 45.757812 0.203125 45.804688 0.257812 L 51.050781 6.558594 C 51.238281 6.785156 51.601562 6.785156 51.859375 6.558594 L 59.214844 0.257812 C 59.332031 0.152344 59.488281 0.09375 59.648438 0.0898438 L 61.792969 0.0898438 C 62.109375 0.0898438 62.320312 0.347656 62.269531 0.664062 Z M 62.269531 0.664062 "/>
<path style=" stroke:none;fill-rule:nonzero;fill:rgb(60%,60%,60%);fill-opacity:1;" d="M 0.925781 18.347656 L 4.367188 18.347656 L 4.199219 19.328125 L 1.785156 19.328125 L 1.574219 20.574219 L 3.894531 20.574219 L 3.726562 21.554688 L 1.410156 21.554688 L 1.195312 22.816406 L 3.699219 22.816406 L 3.535156 23.800781 L 0 23.800781 Z M 0.925781 18.347656 "/>
<path style=" stroke:none;fill-rule:nonzero;fill:rgb(60%,60%,60%);fill-opacity:1;" d="M 16.316406 22.972656 C 16.488281 22.980469 16.65625 22.949219 16.816406 22.882812 C 16.945312 22.832031 17.0625 22.746094 17.152344 22.644531 C 17.242188 22.539062 17.3125 22.421875 17.355469 22.292969 C 17.40625 22.160156 17.441406 22.023438 17.464844 21.882812 L 17.488281 21.742188 L 18.515625 21.742188 L 18.492188 21.882812 C 18.382812 22.53125 18.125 23.03125 17.726562 23.382812 C 17.328125 23.734375 16.804688 23.910156 16.15625 23.910156 C 15.53125 23.910156 15.070312 23.71875 14.773438 23.339844 C 14.476562 22.960938 14.386719 22.40625 14.511719 21.679688 L 14.714844 20.464844 C 14.769531 20.140625 14.871094 19.824219 15.015625 19.527344 C 15.144531 19.265625 15.324219 19.027344 15.539062 18.828125 C 15.746094 18.636719 15.988281 18.488281 16.253906 18.390625 C 16.527344 18.289062 16.824219 18.238281 17.117188 18.238281 C 17.402344 18.234375 17.683594 18.28125 17.949219 18.378906 C 18.167969 18.460938 18.359375 18.601562 18.507812 18.785156 C 18.648438 18.96875 18.742188 19.191406 18.78125 19.421875 C 18.824219 19.703125 18.816406 19.984375 18.765625 20.265625 L 18.742188 20.402344 L 17.71875 20.402344 L 17.742188 20.265625 C 17.761719 20.136719 17.769531 20.003906 17.761719 19.875 C 17.753906 19.75 17.722656 19.632812 17.664062 19.523438 C 17.605469 19.417969 17.519531 19.328125 17.410156 19.269531 C 17.273438 19.199219 17.117188 19.167969 16.960938 19.171875 C 16.800781 19.171875 16.644531 19.203125 16.5 19.269531 C 16.367188 19.335938 16.246094 19.425781 16.148438 19.535156 C 16.042969 19.648438 15.957031 19.78125 15.898438 19.925781 C 15.835938 20.074219 15.789062 20.230469 15.761719 20.386719 L 15.527344 21.757812 C 15.5 21.917969 15.488281 22.082031 15.5 22.246094 C 15.507812 22.378906 15.542969 22.511719 15.605469 22.632812 C 15.664062 22.742188 15.757812 22.828125 15.871094 22.882812 C 16.011719 22.949219 16.164062 22.980469 16.316406 22.972656 Z M 16.316406 22.972656 "/>
<path style=" stroke:none;fill-rule:nonzero;fill:rgb(60%,60%,60%);fill-opacity:1;" d="M 29.132812 20.464844 C 29.253906 19.757812 29.523438 19.210938 29.945312 18.824219 C 30.367188 18.433594 30.894531 18.238281 31.519531 18.238281 C 32.148438 18.238281 32.605469 18.433594 32.894531 18.824219 C 33.183594 19.210938 33.269531 19.761719 33.148438 20.464844 L 32.941406 21.679688 C 32.820312 22.40625 32.546875 22.960938 32.128906 23.339844 C 31.707031 23.71875 31.183594 23.90625 30.554688 23.90625 C 29.929688 23.90625 29.46875 23.71875 29.175781 23.339844 C 28.886719 22.960938 28.800781 22.40625 28.925781 21.679688 Z M 30.714844 22.972656 C 30.882812 22.976562 31.046875 22.949219 31.199219 22.882812 C 31.332031 22.828125 31.449219 22.738281 31.546875 22.632812 C 31.644531 22.515625 31.722656 22.382812 31.773438 22.242188 C 31.835938 22.082031 31.878906 21.914062 31.90625 21.742188 L 32.132812 20.402344 C 32.160156 20.246094 32.171875 20.082031 32.160156 19.921875 C 32.15625 19.785156 32.117188 19.652344 32.054688 19.53125 C 31.996094 19.421875 31.90625 19.332031 31.796875 19.269531 C 31.664062 19.199219 31.511719 19.167969 31.363281 19.171875 C 31.207031 19.167969 31.054688 19.199219 30.914062 19.261719 C 30.773438 19.324219 30.648438 19.414062 30.546875 19.53125 C 30.445312 19.648438 30.367188 19.777344 30.308594 19.921875 C 30.246094 20.078125 30.199219 20.238281 30.171875 20.402344 L 29.945312 21.742188 C 29.914062 21.90625 29.902344 22.074219 29.90625 22.242188 C 29.910156 22.378906 29.941406 22.511719 30.003906 22.632812 C 30.0625 22.742188 30.152344 22.828125 30.265625 22.882812 C 30.40625 22.949219 30.5625 22.980469 30.714844 22.972656 Z M 30.714844 22.972656 "/>
<path style=" stroke:none;fill-rule:nonzero;fill:rgb(60%,60%,60%);fill-opacity:1;" d="M 46.570312 20.015625 C 46.589844 19.914062 46.585938 19.808594 46.558594 19.710938 C 46.53125 19.613281 46.480469 19.519531 46.414062 19.445312 C 46.273438 19.285156 46.046875 19.203125 45.742188 19.203125 C 45.484375 19.203125 45.269531 19.257812 45.097656 19.363281 C 45.019531 19.410156 44.953125 19.472656 44.902344 19.546875 C 44.851562 19.621094 44.816406 19.707031 44.800781 19.796875 C 44.785156 19.878906 44.789062 19.964844 44.8125 20.046875 C 44.839844 20.132812 44.894531 20.203125 44.96875 20.25 C 45.070312 20.320312 45.179688 20.375 45.300781 20.410156 C 45.476562 20.464844 45.65625 20.511719 45.839844 20.542969 C 46.394531 20.648438 46.800781 20.820312 47.058594 21.066406 C 47.320312 21.308594 47.410156 21.667969 47.328125 22.148438 L 47.3125 22.242188 C 47.273438 22.484375 47.1875 22.71875 47.058594 22.929688 C 46.933594 23.136719 46.769531 23.3125 46.578125 23.457031 C 46.371094 23.605469 46.140625 23.71875 45.898438 23.789062 C 45.621094 23.871094 45.339844 23.910156 45.050781 23.90625 C 44.738281 23.914062 44.425781 23.863281 44.132812 23.757812 C 43.898438 23.667969 43.6875 23.523438 43.523438 23.335938 C 43.371094 23.152344 43.265625 22.9375 43.21875 22.703125 C 43.167969 22.445312 43.164062 22.175781 43.214844 21.914062 L 43.253906 21.679688 L 44.28125 21.679688 L 44.25 21.867188 C 44.191406 22.195312 44.242188 22.457031 44.398438 22.648438 C 44.558594 22.84375 44.835938 22.941406 45.234375 22.941406 C 45.546875 22.941406 45.789062 22.875 45.960938 22.738281 C 46.121094 22.625 46.234375 22.453125 46.269531 22.257812 C 46.285156 22.171875 46.28125 22.085938 46.265625 22.003906 C 46.246094 21.917969 46.203125 21.84375 46.140625 21.785156 C 46.054688 21.710938 45.957031 21.648438 45.851562 21.609375 C 45.691406 21.550781 45.527344 21.503906 45.359375 21.476562 C 45.113281 21.4375 44.871094 21.375 44.632812 21.292969 C 44.4375 21.230469 44.25 21.128906 44.089844 20.996094 C 43.941406 20.871094 43.835938 20.710938 43.777344 20.527344 C 43.714844 20.339844 43.707031 20.113281 43.753906 19.84375 L 43.761719 19.796875 C 43.796875 19.574219 43.878906 19.363281 44 19.175781 C 44.125 18.984375 44.285156 18.816406 44.46875 18.683594 C 44.664062 18.535156 44.882812 18.425781 45.113281 18.355469 C 45.371094 18.273438 45.640625 18.234375 45.910156 18.238281 C 46.191406 18.230469 46.476562 18.277344 46.742188 18.375 C 46.957031 18.453125 47.148438 18.578125 47.304688 18.742188 C 47.445312 18.894531 47.546875 19.082031 47.597656 19.28125 C 47.648438 19.492188 47.652344 19.707031 47.617188 19.917969 L 47.566406 20.199219 L 46.539062 20.199219 Z M 46.570312 20.015625 "/>
<path style=" stroke:none;fill-rule:nonzero;fill:rgb(60%,60%,60%);fill-opacity:1;" d="M 59.21875 21.882812 L 58.988281 21.882812 L 58.023438 18.347656 L 59.144531 18.347656 L 59.824219 20.949219 L 59.960938 20.949219 L 61.527344 18.347656 L 62.648438 18.347656 L 60.480469 21.882812 L 60.246094 21.882812 L 59.921875 23.800781 L 58.894531 23.800781 Z M 59.21875 21.882812 "/>
<path style=" stroke:none;fill-rule:nonzero;fill:rgb(60%,60%,60%);fill-opacity:1;" d="M 75.402344 20.015625 C 75.421875 19.914062 75.417969 19.808594 75.390625 19.710938 C 75.363281 19.613281 75.3125 19.519531 75.246094 19.445312 C 75.105469 19.285156 74.878906 19.203125 74.574219 19.203125 C 74.3125 19.203125 74.101562 19.257812 73.933594 19.363281 C 73.855469 19.410156 73.785156 19.472656 73.734375 19.546875 C 73.683594 19.621094 73.648438 19.707031 73.632812 19.796875 C 73.617188 19.878906 73.621094 19.964844 73.644531 20.046875 C 73.671875 20.132812 73.726562 20.203125 73.800781 20.25 C 73.902344 20.320312 74.011719 20.375 74.132812 20.410156 C 74.308594 20.464844 74.488281 20.511719 74.671875 20.542969 C 75.226562 20.648438 75.632812 20.820312 75.890625 21.066406 C 76.152344 21.308594 76.242188 21.667969 76.160156 22.148438 L 76.144531 22.242188 C 76.105469 22.484375 76.019531 22.71875 75.890625 22.929688 C 75.765625 23.136719 75.601562 23.3125 75.410156 23.457031 C 75.203125 23.605469 74.972656 23.71875 74.730469 23.792969 C 74.457031 23.871094 74.171875 23.910156 73.882812 23.90625 C 73.570312 23.914062 73.257812 23.863281 72.964844 23.757812 C 72.730469 23.667969 72.519531 23.523438 72.355469 23.335938 C 72.203125 23.152344 72.097656 22.9375 72.050781 22.703125 C 72 22.445312 71.996094 22.175781 72.046875 21.914062 L 72.085938 21.679688 L 73.113281 21.679688 L 73.082031 21.867188 C 73.027344 22.195312 73.078125 22.457031 73.234375 22.648438 C 73.390625 22.84375 73.667969 22.941406 74.066406 22.941406 C 74.378906 22.941406 74.621094 22.875 74.792969 22.738281 C 74.953125 22.625 75.066406 22.453125 75.101562 22.257812 C 75.117188 22.171875 75.117188 22.085938 75.097656 22.003906 C 75.078125 21.917969 75.035156 21.84375 74.972656 21.785156 C 74.886719 21.710938 74.789062 21.648438 74.683594 21.609375 C 74.523438 21.550781 74.359375 21.503906 74.191406 21.476562 C 73.945312 21.4375 73.703125 21.375 73.46875 21.292969 C 73.269531 21.230469 73.085938 21.128906 72.921875 20.996094 C 72.777344 20.871094 72.667969 20.710938 72.609375 20.527344 C 72.546875 20.339844 72.539062 20.113281 72.585938 19.84375 L 72.59375 19.796875 C 72.628906 19.574219 72.710938 19.363281 72.835938 19.175781 C 72.957031 18.984375 73.117188 18.816406 73.300781 18.683594 C 73.496094 18.535156 73.714844 18.425781 73.945312 18.355469 C 74.203125 18.273438 74.472656 18.234375 74.742188 18.238281 C 75.023438 18.230469 75.308594 18.277344 75.574219 18.375 C 75.789062 18.453125 75.980469 18.578125 76.136719 18.742188 C 76.277344 18.894531 76.378906 19.082031 76.429688 19.28125 C 76.480469 19.492188 76.488281 19.707031 76.449219 19.917969 L 76.402344 20.199219 L 75.375 20.199219 Z M 75.402344 20.015625 "/>
<path style=" stroke:none;fill-rule:nonzero;fill:rgb(60%,60%,60%);fill-opacity:1;" d="M 87.207031 18.347656 L 91.128906 18.347656 L 90.960938 19.328125 L 89.515625 19.328125 L 88.753906 23.800781 L 87.730469 23.800781 L 88.488281 19.328125 L 87.039062 19.328125 Z M 87.207031 18.347656 "/>
<path style=" stroke:none;fill-rule:nonzero;fill:rgb(60%,60%,60%);fill-opacity:1;" d="M 101.839844 18.347656 L 105.277344 18.347656 L 105.113281 19.328125 L 102.699219 19.328125 L 102.488281 20.574219 L 104.808594 20.574219 L 104.640625 21.554688 L 102.320312 21.554688 L 102.109375 22.816406 L 104.617188 22.816406 L 104.449219 23.800781 L 100.914062 23.800781 Z M 101.839844 18.347656 "/>
<path style=" stroke:none;fill-rule:nonzero;fill:rgb(60%,60%,60%);fill-opacity:1;" d="M 115.789062 18.347656 L 117.59375 18.347656 L 117.210938 22.445312 L 117.078125 23.238281 L 117.261719 23.238281 L 117.398438 22.445312 L 118.40625 18.347656 L 120.210938 18.347656 L 119.285156 23.800781 L 118.351562 23.800781 L 118.96875 20.15625 L 119.273438 18.910156 L 119.085938 18.910156 L 117.851562 23.800781 L 116.308594 23.800781 L 116.722656 18.910156 L 116.535156 18.910156 L 116.414062 20.15625 L 115.796875 23.800781 L 114.863281 23.800781 Z M 115.789062 18.347656 "/>
<path style=" stroke:none;fill-rule:nonzero;fill:rgb(80%,100%,0%);fill-opacity:1;" d="M 129.304688 0.0898438 L 127.242188 0.0898438 L 127.242188 2.15625 L 129.304688 2.15625 Z M 129.304688 0.0898438 "/>
<path style=" stroke:none;fill-rule:nonzero;fill:rgb(80%,100%,0%);fill-opacity:1;" d="M 131.367188 2.15625 L 129.304688 2.15625 L 129.304688 4.222656 L 131.367188 4.222656 Z M 131.367188 2.15625 "/>
<path style=" stroke:none;fill-rule:nonzero;fill:rgb(80%,100%,0%);fill-opacity:1;" d="M 137.554688 0.0898438 L 135.492188 0.0898438 L 135.492188 2.15625 L 137.554688 2.15625 Z M 137.554688 0.0898438 "/>
<path style=" stroke:none;fill-rule:nonzero;fill:rgb(80%,100%,0%);fill-opacity:1;" d="M 135.492188 2.15625 L 133.429688 2.15625 L 133.429688 4.222656 L 135.492188 4.222656 Z M 135.492188 2.15625 "/>
<path style=" stroke:none;fill-rule:nonzero;fill:rgb(80%,100%,0%);fill-opacity:1;" d="M 133.429688 4.222656 L 131.367188 4.222656 L 131.367188 6.289062 L 133.429688 6.289062 Z M 133.429688 4.222656 "/>
<path style=" stroke:none;fill-rule:nonzero;fill:rgb(80%,100%,0%);fill-opacity:1;" d="M 135.492188 6.289062 L 133.429688 6.289062 L 133.429688 8.351562 L 135.492188 8.351562 Z M 135.492188 6.289062 "/>
<path style=" stroke:none;fill-rule:nonzero;fill:rgb(80%,100%,0%);fill-opacity:1;" d="M 137.554688 8.351562 L 135.492188 8.351562 L 135.492188 10.417969 L 137.554688 10.417969 Z M 137.554688 8.351562 "/>
<path style=" stroke:none;fill-rule:nonzero;fill:rgb(80%,100%,0%);fill-opacity:1;" d="M 131.367188 6.289062 L 129.304688 6.289062 L 129.304688 8.351562 L 131.367188 8.351562 Z M 131.367188 6.289062 "/>
<path style=" stroke:none;fill-rule:nonzero;fill:rgb(80%,100%,0%);fill-opacity:1;" d="M 129.304688 8.351562 L 127.242188 8.351562 L 127.242188 10.417969 L 129.304688 10.417969 Z M 129.304688 8.351562 "/>
<path style=" stroke:none;fill-rule:nonzero;fill:rgb(80%,100%,0%);fill-opacity:1;" d="M 141.679688 2.15625 L 139.617188 2.15625 L 139.617188 4.222656 L 141.679688 4.222656 Z M 141.679688 2.15625 "/>
<path style=" stroke:none;fill-rule:nonzero;fill:rgb(80%,100%,0%);fill-opacity:1;" d="M 147.867188 0.0898438 L 145.804688 0.0898438 L 145.804688 2.15625 L 147.867188 2.15625 Z M 147.867188 0.0898438 "/>
<path style=" stroke:none;fill-rule:nonzero;fill:rgb(80%,100%,0%);fill-opacity:1;" d="M 145.804688 0.0898438 L 143.742188 0.0898438 L 143.742188 2.15625 L 145.804688 2.15625 Z M 145.804688 0.0898438 "/>
<path style=" stroke:none;fill-rule:nonzero;fill:rgb(80%,100%,0%);fill-opacity:1;" d="M 143.742188 0.0898438 L 141.679688 0.0898438 L 141.679688 2.15625 L 143.742188 2.15625 Z M 143.742188 0.0898438 "/>
<path style=" stroke:none;fill-rule:nonzero;fill:rgb(80%,100%,0%);fill-opacity:1;" d="M 145.804688 6.289062 L 143.742188 6.289062 L 143.742188 8.351562 L 145.804688 8.351562 Z M 145.804688 6.289062 "/>
<path style=" stroke:none;fill-rule:nonzero;fill:rgb(80%,100%,0%);fill-opacity:1;" d="M 143.742188 6.289062 L 141.679688 6.289062 L 141.679688 8.351562 L 143.742188 8.351562 Z M 143.742188 6.289062 "/>
<path style=" stroke:none;fill-rule:nonzero;fill:rgb(80%,100%,0%);fill-opacity:1;" d="M 147.867188 6.289062 L 145.804688 6.289062 L 145.804688 8.351562 L 147.867188 8.351562 Z M 147.867188 6.289062 "/>
<path style=" stroke:none;fill-rule:nonzero;fill:rgb(80%,100%,0%);fill-opacity:1;" d="M 149.929688 4.222656 L 147.867188 4.222656 L 147.867188 6.289062 L 149.929688 6.289062 Z M 149.929688 4.222656 "/>
<path style=" stroke:none;fill-rule:nonzero;fill:rgb(80%,100%,0%);fill-opacity:1;" d="M 149.929688 2.15625 L 147.867188 2.15625 L 147.867188 4.222656 L 149.929688 4.222656 Z M 149.929688 2.15625 "/>
<path style=" stroke:none;fill-rule:nonzero;fill:rgb(80%,100%,0%);fill-opacity:1;" d="M 141.679688 6.289062 L 139.617188 6.289062 L 139.617188 8.351562 L 141.679688 8.351562 Z M 141.679688 6.289062 "/>
<path style=" stroke:none;fill-rule:nonzero;fill:rgb(80%,100%,0%);fill-opacity:1;" d="M 141.679688 8.351562 L 139.617188 8.351562 L 139.617188 10.417969 L 141.679688 10.417969 Z M 141.679688 8.351562 "/>
<path style=" stroke:none;fill-rule:nonzero;fill:rgb(80%,100%,0%);fill-opacity:1;" d="M 141.679688 4.222656 L 139.617188 4.222656 L 139.617188 6.289062 L 141.679688 6.289062 Z M 141.679688 4.222656 "/>
</g>
</svg>
