<svg id="Capa_1" data-name="Capa 1" xmlns="http://www.w3.org/2000/svg" viewBox="0 0 512 512"><defs><style>.cls-1{fill:#383838;}.cls-2{fill:#686868;}</style></defs><path class="cls-1" d="M70.3,217,247.1,103.6a3.9,3.9,0,0,1,3.9,0L429.3,217a3.5,3.5,0,0,1,1.6,2.9v13a3.6,3.6,0,0,1-5.6,2.8L250.7,124.5a4.1,4.1,0,0,0-4,0L74.5,236.1a3.6,3.6,0,0,1-5.6-2.8l-.2-13.4A3.6,3.6,0,0,1,70.3,217Z"/><path class="cls-1" d="M164,206.7c14.3-8,68.2-39.5,82.1-47.7a6.8,6.8,0,0,1,6.5,0l82.8,48.2a6.9,6.9,0,0,1,3.4,6V242a6.7,6.7,0,0,1-6.6,6.8H312.9a6.7,6.7,0,0,1-6.6-6.8V228.7a6.8,6.8,0,0,0-3.2-5.8L253.9,192a6.5,6.5,0,0,0-6.6-.1l-50.9,29a6.9,6.9,0,0,0-3.4,6v42.5a6.7,6.7,0,0,1-6.6,6.8H167.2a6.7,6.7,0,0,1-6.7-6.8V212.7A6.9,6.9,0,0,1,164,206.7Z"/><path class="cls-1" d="M119.8,278.3H379.4s14.5,101.3-127.2,202.6C252.2,480.9,137.8,418.7,119.8,278.3Z"/><path class="cls-1" d="M386,181.8l30-32.2,42.8,23.3s10.3-11,10.3-10S431,124.3,431,124.3l53.4-58.2s40-2.7,20-37.6c0,0-32.1-16.5-36.4,20.5l-61.3,52s-39.5-39.7-39.5-38-12.5,11.3-12.5,11.3l26,40.7-39.9,37.7Z"/><path class="cls-1" d="M127.3,343.1s18.6,41.8,32.8,55.5l-59.2,58.8L20.4,486.9l29.2-75.3Z"/><path class="cls-2" d="M250.1,284.7h81.8c4.6,0,7.9,3.9,6.9,8-6.9,27.9-33.3,120.8-83.4,148.1a7.7,7.7,0,0,1-8.5-1c-15.4-13.9-73.3-70.5-86.3-147.9-.6-4,2.7-7.5,7-7.5h21a7,7,0,0,1,6.7,4.5c6.3,17.7,30.1,82.3,49.9,97.7a7.5,7.5,0,0,0,9.8-.6c7.4-7.5,23.8-26.6,37.9-60.4,1.8-4.2-1.6-8.8-6.6-8.8H251.7a6.9,6.9,0,0,1-7.1-6.1l-1.5-18.9C242.7,288,246,284.7,250.1,284.7Z"/><path class="cls-1" d="M125.7,176.3l-30-32.2L52.9,167.4s-10.3-11-10.3-9.9,38.1-38.7,38.1-38.7L27.3,60.6s-40-2.7-20-37.6c0,0,32.1-16.5,36.4,20.5l61.3,52s39.6-39.7,39.6-38S157,68.8,157,68.8l-26,40.8,39.9,37.6Z"/><path class="cls-1" d="M374.7,343.1s-18.5,41.8-32.8,55.5l59.2,58.8,80.6,29.5-29.3-75.3Z"/></svg>