<svg id="Capa_1" data-name="Capa 1" xmlns="http://www.w3.org/2000/svg" viewBox="0 0 512 512"><defs><style>.cls-1{fill:#383838;}</style></defs><polygon class="cls-1" points="471.35 438.27 334.72 438.27 334.72 480.96 329.02 480.96 329.02 367.1 185.27 367.1 185.27 480.96 179.58 480.96 179.58 409.8 42.94 409.8 42.94 480.96 14.48 480.96 14.48 509.43 499.82 509.43 499.82 480.96 471.35 480.96 471.35 438.27"/><path class="cls-1" d="M257.15,147a13.1,13.1,0,0,1,2.09.18l16.57-38.5H238.48l16.58,38.5A13.1,13.1,0,0,1,257.15,147Z"/><path class="cls-1" d="M278,359.83a17.59,17.59,0,0,0,17.6-17.59V129.11a122.22,122.22,0,0,0,27.09-23.71c15.21-17.67,30.47-45.74,30.42-84.72,0-1.92,0-3.84-.11-5.78a11.38,11.38,0,1,0-22.75.82c.06,1.69.09,3.34.09,5-.05,33-12.47,55.24-24.95,69.91a102.92,102.92,0,0,1-17.13,16c-1.11.82-2.12,1.52-3,2.12-.21,0-.42,0-.64,0h-1.86l-.94,2.2-6.16,14.31-10.56,24.51a13.17,13.17,0,1,1-16,0l-10.55-24.51-6.16-14.31-1-2.2h-1.86c-.21,0-.42,0-.63,0A101.47,101.47,0,0,1,207.7,89.2C195.63,74.51,184,52.64,183.92,20.67c0-1.62,0-3.27.09-4.92a11.38,11.38,0,1,0-22.75-.88c-.08,2-.12,3.9-.11,5.8-.06,39,15.21,67.06,30.42,84.73a122.46,122.46,0,0,0,27.08,23.71V342.24a17.6,17.6,0,0,0,35.2,0V228h6.6V342.24A17.59,17.59,0,0,0,278,359.83Z"/><path class="cls-1" d="M249.89,102.07A32,32,0,1,0,226,63.62,32,32,0,0,0,249.89,102.07Z"/><path class="cls-1" d="M109.13,189.66a14.25,14.25,0,0,1,2.09.18l16.58-38.49H90.47l16.58,38.49A14.23,14.23,0,0,1,109.13,189.66Z"/><path class="cls-1" d="M116.4,82.4a32,32,0,1,0,23.92,38.44A32,32,0,0,0,116.4,82.4Z"/><path class="cls-1" d="M70.64,171.81V384.93a17.6,17.6,0,0,0,35.2,0V270.69h6.59V384.93a17.6,17.6,0,1,0,35.2,0V191.54c6,13.28,12.16,37.11,13.32,77.92a11.39,11.39,0,0,0,11.38,11.06h.33a11.39,11.39,0,0,0,11.05-11.71c-1.48-50.5-10.08-78.57-19.59-95-7.46-13-16-18.27-20.67-20.11a10.93,10.93,0,0,0-6.82-2.38h-1.86l-1,2.29-6.13,14.22-10.55,24.51a13.17,13.17,0,1,1-16,0L90.6,167.85l-6.15-14.3-1-2.2H81.64c-.22,0-.43,0-.64,0A101.72,101.72,0,0,1,59.68,131.9C47.61,117.2,36,95.34,35.9,63.37c0-1.62,0-3.27.1-4.92a11.39,11.39,0,0,0-22.76-.88c-.07,2-.11,3.9-.11,5.8-.05,39,15.21,67.06,30.42,84.73A122.45,122.45,0,0,0,70.64,171.81Z"/><path class="cls-1" d="M407.13,218.84a13.1,13.1,0,0,1,2.09.18l16.58-38.5H388.47L405,219A13.2,13.2,0,0,1,407.13,218.84Z"/><path class="cls-1" d="M399.87,111.58a32,32,0,1,0,38.44,23.92A32,32,0,0,0,399.87,111.58Z"/><path class="cls-1" d="M491.23,75.81a11.37,11.37,0,0,0-11,11.79c.06,1.68.09,3.34.09,5-.05,33-12.47,55.24-24.95,69.92a103.22,103.22,0,0,1-17.13,16c-1.11.82-2.12,1.52-3,2.12l-.64,0h-1.86l-.95,2.2L425.66,197l-10.55,24.51a13.17,13.17,0,1,1-15.95,0L388.6,197l-6.12-14.22-1-2.29h-1.85a10.9,10.9,0,0,0-6.82,2.38c-4.66,1.84-13.22,7.1-20.68,20.12-9.51,16.39-18.1,44.46-19.59,95a11.39,11.39,0,0,0,11.05,11.71h.34a11.39,11.39,0,0,0,11.38-11.05c1.15-40.84,7.34-64.64,13.32-77.94V414.11a17.6,17.6,0,1,0,35.19,0V299.86h6.6V414.11a17.6,17.6,0,0,0,35.2,0V201a122.62,122.62,0,0,0,27.08-23.7c15.21-17.67,30.47-45.75,30.42-84.73,0-1.91,0-3.84-.11-5.78A11.37,11.37,0,0,0,491.23,75.81Z"/></svg>