<svg id="Capa_1" data-name="Capa 1" xmlns="http://www.w3.org/2000/svg" viewBox="0 0 512 512"><defs><style>.cls-1{fill:#383838;}</style></defs><path class="cls-1" d="M366.16,266.73,258.91,221.62a7.53,7.53,0,0,0-5.82,0L145.84,266.73a7.49,7.49,0,0,0-4.58,7.45c5.79,82.31,35.67,130.3,59.72,156.05,26.46,28.35,51.63,36.8,52.69,37.15a7.79,7.79,0,0,0,4.67,0c1.34-.44,33.15-11.16,62.9-49.09A7.51,7.51,0,1,0,309.41,409a153.92,153.92,0,0,1-38,35,104.51,104.51,0,0,1-15.41,8.2c-6.46-2.71-25.27-11.84-44.7-32.91-38.42-41.63-51-98.53-54.64-140.79L256,236.7l99.34,41.78c-3.51,41.25-13.59,77-30,106.48a7.52,7.52,0,1,0,13.13,7.32c18.19-32.64,29-72.37,32.27-118.1a7.51,7.51,0,0,0-4.59-7.45Z"/><path class="cls-1" d="M510.26,239.65a7.7,7.7,0,0,0-9.21-5.31l-90.27,24.23q.53-5.67.94-11.42a7.49,7.49,0,0,0-4.58-7.45L293.26,191.8h45a40.19,40.19,0,0,0,40.15-40.14v-.61h13.12a7.52,7.52,0,0,0,0-15H367.71V7.52A7.52,7.52,0,0,0,360.19,0H151.81a7.52,7.52,0,0,0-7.52,7.52V136H120.46a7.52,7.52,0,1,0,0,15h13.11v.61a40.19,40.19,0,0,0,40.15,40.14h45L104.86,239.7a7.49,7.49,0,0,0-4.58,7.45q.41,5.76.94,11.42l-32.4-8.7a7.52,7.52,0,0,0-3.9,14.52l38,10.2q2,15.81,4.93,30.85L41.7,287.68A36.08,36.08,0,0,1,15.08,251l20.79,5.58a7.52,7.52,0,0,0,3.9-14.52L11,234.34a7.7,7.7,0,0,0-9.21,5.31,51.16,51.16,0,0,0,29,60.07,51.15,51.15,0,0,0,32.24,54,51.15,51.15,0,0,0,37.43,55.44l52.52,14.09a258.68,258.68,0,0,0,29.13,37.8c36.08,38.65,70.18,50.1,71.61,50.57a7.72,7.72,0,0,0,4.67,0c1.44-.47,35.54-11.92,71.61-50.57a258.2,258.2,0,0,0,29.14-37.8l52.51-14.09A51.13,51.13,0,0,0,449,353.74a51.16,51.16,0,0,0,32.25-54,51.16,51.16,0,0,0,29-60.07ZM352.68,136h-35.1V90.55a7.52,7.52,0,0,0-15,0V136h-93.1V15h93.1V60.5a7.52,7.52,0,0,0,15,0V15h35.1ZM159.32,15h35.11V136H159.32ZM148.6,151.66v-.61H363.4v.61a25.14,25.14,0,0,1-25.12,25.11H173.72a25.14,25.14,0,0,1-25.12-25.11ZM45.4,304.23l66,17.72q3.91,16.51,9,31.95L72,340.91A36.1,36.1,0,0,1,45.4,304.24Zm58.9,90.43A36.1,36.1,0,0,1,77.68,358l49,13.14c1.21,3.09,2.44,6.15,3.73,9.17q5.42,12.7,11.76,24.52Zm215.32,55.45C291.33,480.67,264,493.24,256,496.47c-8-3.24-35.34-15.81-63.62-46.36-19.67-21.25-36-46.94-48.44-76.36-15.07-35.54-24.57-76.66-28.26-122.3l140.32-59,140.33,59c-3.69,45.63-13.2,86.76-28.27,122.3-12.47,29.42-28.77,55.11-48.44,76.36Zm88.08-55.45-37.85,10.16q6.33-11.82,11.76-24.52c1.29-3,2.52-6.08,3.73-9.17l49-13.14A36.1,36.1,0,0,1,407.7,394.66ZM440,340.91l-48.43,13q5.1-15.42,9-31.94l66-17.73A36.1,36.1,0,0,1,440,340.91Zm30.31-53.23-66.16,17.76q2.92-15,4.93-30.85L496.92,251a36.08,36.08,0,0,1-26.63,36.67Z"/><path class="cls-1" d="M312.31,336.19a17.43,17.43,0,0,0-9.65-29.72l-20.21-2.94a2.39,2.39,0,0,1-1.8-1.3l-9-18.34a17.39,17.39,0,0,0-31.22,0l-9,18.34a2.39,2.39,0,0,1-1.8,1.3l-20.21,2.94a17.43,17.43,0,0,0-9.65,29.72l14.63,14.27a2.38,2.38,0,0,1,.68,2.12l-3.45,20.16a17.42,17.42,0,0,0,25.27,18.36l18.07-9.52a2.4,2.4,0,0,1,2.21,0l18.08,9.52a17.49,17.49,0,0,0,8.12,2,17.46,17.46,0,0,0,17.15-20.38L297,352.58a2.38,2.38,0,0,1,.68-2.12Zm-25.12,3.52a17.44,17.44,0,0,0-5,15.41l3.46,20.16a2.29,2.29,0,0,1-1,2.34,2.25,2.25,0,0,1-2.49.18l-18.09-9.51a17.33,17.33,0,0,0-16.2,0l-18.08,9.51a2.26,2.26,0,0,1-2.5-.18,2.28,2.28,0,0,1-.95-2.34l3.45-20.16a17.39,17.39,0,0,0-5-15.41l-14.62-14.28a2.31,2.31,0,0,1-.61-2.46,2.28,2.28,0,0,1,1.92-1.62l20.22-2.94a17.43,17.43,0,0,0,13.11-9.54l9-18.34a2.37,2.37,0,0,1,4.26,0h0l9,18.33a17.43,17.43,0,0,0,13.11,9.54l20.22,2.94a2.28,2.28,0,0,1,1.92,1.62,2.31,2.31,0,0,1-.61,2.46Z"/></svg>