<svg id="Capa_1" data-name="Capa 1" xmlns="http://www.w3.org/2000/svg" viewBox="0 0 512 512"><defs><style>.cls-1{fill:#383838;}</style></defs><circle class="cls-1" cx="245.95" cy="247.06" r="16.7"/><path class="cls-1" d="M461.91,37.2h-345A50.14,50.14,0,0,0,66.78,87.28V104H16.7A16.69,16.69,0,0,0,0,120.67V220.85a16.69,16.69,0,0,0,16.7,16.69H66.78v33.39H16.7A16.7,16.7,0,0,0,0,287.63V387.8a16.7,16.7,0,0,0,16.7,16.7H66.78v16.7a50.14,50.14,0,0,0,50.09,50.08h345A50.14,50.14,0,0,0,512,421.2V87.28A50.14,50.14,0,0,0,461.91,37.2ZM66.78,371.11H33.39V304.33H66.78v66.78Zm0-167H33.39V137.37H66.78v66.78ZM478.61,421.2a16.71,16.71,0,0,1-16.7,16.69h-345a16.71,16.71,0,0,1-16.7-16.69V87.28a16.71,16.71,0,0,1,16.7-16.69h345a16.71,16.71,0,0,1,16.7,16.69Z"/><path class="cls-1" d="M315.56,293.06a83.26,83.26,0,0,0,0-92l42.37-42.37a16.7,16.7,0,1,0-23.62-23.61L292,177.45a83.21,83.21,0,0,0-92,0l-42.37-42.37A16.69,16.69,0,1,0,134,158.69l42.36,42.37a83.26,83.26,0,0,0,0,92L134,335.43A16.69,16.69,0,1,0,157.58,359l42.36-42.37a83.23,83.23,0,0,0,92,0L334.31,359a16.7,16.7,0,1,0,23.62-23.61ZM246,297.15A50.09,50.09,0,1,1,296,247.06,50.15,50.15,0,0,1,246,297.15Z"/><path class="cls-1" d="M424,174a16.7,16.7,0,0,0-16.7,16.7V324.23a16.7,16.7,0,0,0,33.4,0V190.67A16.71,16.71,0,0,0,424,174Z"/></svg>