<svg id="Capa_1" data-name="Capa 1" xmlns="http://www.w3.org/2000/svg" viewBox="0 0 512 512"><defs><style>.cls-1{fill:#383838;}</style></defs><path class="cls-1" d="M449.43,131.67V458.51A48.47,48.47,0,0,1,401,506.93H180.09a48.47,48.47,0,0,1-48.42-48.42V246a119.21,119.21,0,0,0,36.32.92v211.6a12.11,12.11,0,0,0,12.1,12.1H401a12.12,12.12,0,0,0,12.11-12.1V131.67A12.13,12.13,0,0,0,401,119.56H281.18a128,128,0,0,0-5.3-36.31H401A48.47,48.47,0,0,1,449.43,131.67ZM150.83,232A114.2,114.2,0,1,1,265,117.75,114.33,114.33,0,0,1,150.83,232Zm0-24.21a90,90,0,1,0-90-90A90.09,90.09,0,0,0,150.83,207.74Zm68.49-77.88a12.11,12.11,0,1,0,0-24.21H162.94V58.13a12.11,12.11,0,1,0-24.21,0v59.62a12.11,12.11,0,0,0,12.1,12.11ZM359,228H227.9a12.11,12.11,0,1,0,0,24.21H359A12.11,12.11,0,0,0,359,228Zm.21,73.42H228.11a12.11,12.11,0,0,0,0,24.21H359.25a12.11,12.11,0,1,0,0-24.21Zm0,76.47H228.11a12.11,12.11,0,0,0,0,24.21H359.25a12.11,12.11,0,1,0,0-24.21Z"/></svg>