<svg id="Capa_1" data-name="Capa 1" xmlns="http://www.w3.org/2000/svg" viewBox="0 0 512 512"><defs><style>.cls-1{fill:#383838;}.cls-2{fill:#fff;}</style></defs><path class="cls-1" d="M218.54,384.11h-6.2c-.32,1.42-.66,2.84-1.05,4.25-.32,1.2-.72,2.39-1.09,3.61-.85,2.71-1.81,5.42-2.84,8.13-.28.7-.45,1.43-.74,2.12H441.33a27.09,27.09,0,0,0,27.09-27.09V293.8H450.36v4.51a9,9,0,0,1-18.06,0V293.8H405.21c-.76,0-1.47-.19-2.22-.23-.22,0-.4.12-.62.12h-.71c-1.17-.09-2.27-.39-3.42-.57s-2.08-.29-3.09-.51a46.63,46.63,0,0,1-5.42-1.7c-.84-.31-1.71-.54-2.53-.9a46.64,46.64,0,0,1-6.62-3.61c-.19-.13-.42-.22-.62-.35a44.79,44.79,0,0,1-6.38-5.19c-.06-.06-.07-.13-.12-.18a45,45,0,0,1-12.82-26.47,8.94,8.94,0,0,1-.36-1.25,41.19,41.19,0,0,1-.23-4.31V230.58c0-1.53.08-3.06.24-4.58a6.22,6.22,0,0,1,.35-1.11,44.88,44.88,0,0,1,13-26.44c.07-.07.09-.18.17-.25a44.94,44.94,0,0,1,13.55-9c.79-.34,1.62-.55,2.43-.85a45.83,45.83,0,0,1,5.52-1.72c1-.23,2.13-.35,3.2-.51s2.32-.48,3.5-.56a6.85,6.85,0,0,1,.91.11c.79,0,1.55-.24,2.37-.24h27.09v-4.51a9,9,0,1,1,18.06,0v4.54h18.06V104.15a27.09,27.09,0,0,0-27.09-27.09H62a9,9,0,0,0-9,9V248.57c.68-.29,1.38-.46,2.06-.73,2.72-1.06,5.48-2,8.26-2.88,1.16-.36,2.32-.75,3.49-1.07,1.41-.38,2.83-.72,4.25-1v-6.21a9,9,0,0,1,18.06,0V240c1.36-.11,2.71-.18,4.05-.25l.56.08c1.47-.06,3-.19,4.42-.19a117.77,117.77,0,0,1,22.32,2.19h.4a3.64,3.64,0,0,1,.57.16,110.77,110.77,0,0,1,12,3.11c1.54.49,3,1.11,4.52,1.66,2.45.91,4.89,1.81,7.22,2.83.64.28,1.32.47,2,.77a4.76,4.76,0,0,1,.74.53,117.44,117.44,0,0,1,22,13.49c.3.13.58.28.86.43.51.41,1,.91,1.47,1.31,1.4,1.15,2.71,2.41,4.06,3.62a121.3,121.3,0,0,1,9,9c1.26,1.41,2.56,2.78,3.75,4.24.41.5.91.9,1.29,1.44a6.58,6.58,0,0,1,.42.84,117.88,117.88,0,0,1,13.55,22,6.61,6.61,0,0,1,.53.74c.3.64.48,1.33.77,2,1,2.36,1.93,4.79,2.81,7.22.55,1.52,1.18,3,1.66,4.51a118.12,118.12,0,0,1,3.13,12.14,2.35,2.35,0,0,0,.14.52,1.27,1.27,0,0,1,0,.34A117.1,117.1,0,0,1,215.56,357c0,1.48-.13,3-.19,4.46,0,.18.09.33.09.51-.07,1.35-.15,2.71-.26,4.06h3.34a9,9,0,0,1,0,18.07ZM450.36,159.84a9,9,0,0,1-18.06,0V138.77a9,9,0,0,1,18.06,0ZM427.78,95.12h13.55a9,9,0,0,1,9,9V117.7a9,9,0,0,1-18.06,0v-4.52h-4.52a9,9,0,1,1,0-18.06Zm-51.4,0h25.7a9,9,0,1,1,0,18.06h-25.7a9,9,0,1,1,0-18.06ZM89.13,212.85a9,9,0,0,1-18.06,0V189a9,9,0,0,1,18.06,0Zm0-47.57a9,9,0,0,1-18.06,0V141.49a9,9,0,0,1,18.06,0Zm4.52-52.1H89.13v4.52a9,9,0,1,1-18.06,0V104.15a9,9,0,0,1,9-9H93.65a9,9,0,0,1,0,18.06Zm51.4,0h-25.7a9,9,0,0,1,0-18.06h25.7a9,9,0,0,1,0,18.06Zm51.41,0h-25.7a9,9,0,0,1,0-18.06h25.7a9,9,0,0,1,0,18.06Zm81.87,270.93h-29.9a9,9,0,0,1,0-18.07h29.9a9,9,0,0,1,0,18.07Zm59.78,0H308.22a9,9,0,0,1,0-18.07h29.89a9,9,0,0,1,0,18.07Zm94.19-64.73a9,9,0,0,1,18.06,0v21.07a9,9,0,0,1-18.06,0ZM427.78,366h4.52v-4.51a9,9,0,0,1,18.06,0v13.54a9,9,0,0,1-9,9H427.78a9,9,0,0,1,0-18.07ZM368,366h29.9a9,9,0,0,1,0,18.07H368A9,9,0,0,1,368,366ZM325,95.12h25.7a9,9,0,0,1,0,18.06H325a9,9,0,0,1,0-18.06Zm-51.4,0h25.7a9,9,0,1,1,0,18.06h-25.7a9,9,0,1,1,0-18.06Zm-51.4,18.06a9,9,0,0,1,0-18.06h25.7a9,9,0,0,1,0,18.06Z"/><path class="cls-1" d="M504.54,293.8H486.48v81.27a44.43,44.43,0,0,1-.84,8.38c-.17.9-.43,1.69-.63,2.53a45.91,45.91,0,0,1-1.68,5.38c-.36.9-.75,1.8-1.16,2.71a44.66,44.66,0,0,1-2.56,4.71,25.94,25.94,0,0,1-1.48,2.32c-.25.35-.44.76-.7,1.1a27.09,27.09,0,0,0,27.1-27.09Z"/><path class="cls-1" d="M423.27,239.61a9,9,0,1,1-9-9A9,9,0,0,1,423.27,239.61Z"/><path class="cls-1" d="M504.54,104.15a27.09,27.09,0,0,0-27.09-27.09c.26.35.45.75.7,1.1.53.75,1,1.54,1.48,2.32a47.82,47.82,0,0,1,2.56,4.72c.41.9.8,1.81,1.15,2.71A44.69,44.69,0,0,1,485,93.33c.21.85.47,1.67.63,2.53a43.64,43.64,0,0,1,.83,8.29v81.28h18.06Z"/><path class="cls-1" d="M504.54,203.49H405.21a25.42,25.42,0,0,0-4.17.43c-.6.09-1.21.15-1.8.29a25.84,25.84,0,0,0-3.44,1.07c-.44.17-.9.27-1.33.46a27.12,27.12,0,0,0-16.36,24.84v18.07a27.11,27.11,0,0,0,11.95,22.45l.19.1a27.42,27.42,0,0,0,4.16,2.26c.46.2.9.33,1.42.5a24.54,24.54,0,0,0,3.35,1.05c.6.13,1.21.2,1.81.3a26,26,0,0,0,4.22.43h99.33Zm-90.3,63.22a27.1,27.1,0,1,1,27.09-27.1A27.09,27.09,0,0,1,414.24,266.71Z"/><g id="Layer_2" data-name="Layer 2"><circle class="cls-1" cx="102.68" cy="358.1" r="98.96"/></g><g id="Layer_6" data-name="Layer 6"><path class="cls-2" d="M51.78,368.89H40.47v11.32H51.78Z"/><path class="cls-2" d="M63.09,380.21H51.78v11.3H63.09Z"/><path class="cls-2" d="M97,368.89H85.71v11.32H97Z"/><path class="cls-2" d="M85.71,380.21H74.4v11.3H85.71Z"/><path class="cls-2" d="M74.4,391.51H63.09v11.31H74.4Z"/><path class="cls-2" d="M85.71,402.82H74.4v11.31H85.71Z"/><path class="cls-2" d="M97,414.14H85.71v11.31H97Z"/><path class="cls-2" d="M63.09,402.82H51.78v11.31H63.09Z"/><path class="cls-2" d="M51.78,414.14H40.47v11.31H51.78Z"/><path class="cls-2" d="M119.64,380.21H108.33v11.3h11.31Z"/><path class="cls-2" d="M153.57,368.89H142.26v11.32h11.31Z"/><path class="cls-2" d="M142.26,368.89H131v11.32h11.31Z"/><path class="cls-2" d="M131,368.89H119.64v11.32H131Z"/><path class="cls-2" d="M142.26,402.82H131v11.31h11.31Z"/><path class="cls-2" d="M131,402.82H119.64v11.31H131Z"/><path class="cls-2" d="M153.57,402.82H142.26v11.31h11.31Z"/><path class="cls-2" d="M164.88,391.51H153.57v11.31h11.32Z"/><path class="cls-2" d="M164.88,380.21H153.57v11.3h11.32Z"/><path class="cls-2" d="M119.64,402.82H108.33v11.31h11.31Z"/><path class="cls-2" d="M119.64,414.14H108.33v11.31h11.31Z"/><path class="cls-2" d="M119.64,391.51H108.33v11.31h11.31Z"/><path class="cls-2" d="M119.64,323.66H108.33V335h11.31Z"/><path class="cls-2" d="M119.64,312.35H108.33v11.31h11.31Z"/><path class="cls-2" d="M119.64,301H108.33v11.31h11.31Z"/><path class="cls-2" d="M153.57,312.35H142.26v11.31h11.31Z"/><path class="cls-2" d="M164.88,301H153.57v11.31h11.32Z"/><path class="cls-2" d="M142.26,323.66H131V335h11.31Z"/><path class="cls-2" d="M131,312.35H119.64v11.31H131Z"/><path class="cls-2" d="M164.88,335H153.57v11.31h11.32Z"/><path class="cls-2" d="M164.88,346.28H153.57v11.31h11.32Z"/><path class="cls-2" d="M164.88,323.66H153.57V335h11.32Z"/><path class="cls-2" d="M164.88,312.35H153.57v11.31h11.32Z"/><path class="cls-2" d="M119.64,346.28H108.33v11.31h11.31Z"/><path class="cls-2" d="M119.64,335H108.33v11.31h11.31Z"/><path class="cls-2" d="M51.78,312.35H40.47v11.31H51.78Z"/><path class="cls-2" d="M85.71,301H74.4v11.31H85.71Z"/><path class="cls-2" d="M74.4,301H63.09v11.31H74.4Z"/><path class="cls-2" d="M63.09,301H51.78v11.31H63.09Z"/><path class="cls-2" d="M74.4,346.28H63.09v11.31H74.4Z"/><path class="cls-2" d="M63.09,346.28H51.78v11.31H63.09Z"/><path class="cls-2" d="M85.71,346.28H74.4v11.31H85.71Z"/><path class="cls-2" d="M97,335H85.71v11.31H97Z"/><path class="cls-2" d="M97,323.66H85.71V335H97Z"/><path class="cls-2" d="M85.71,323.66H74.4V335H85.71Z"/><path class="cls-2" d="M51.78,335H40.47v11.31H51.78Z"/><path class="cls-2" d="M51.78,323.66H40.47V335H51.78Z"/></g></svg>